<mxfile host="app.diagrams.net" modified="2024-01-31T21:06:28.369Z" agent="Mozilla/5.0 (Macintosh; Intel Mac OS X 10_15_7) AppleWebKit/537.36 (KHTML, like Gecko) Chrome/121.0.0.0 Safari/537.36" version="23.1.0" etag="PTLdQbfwYriuoYf8cUS3" type="github">
  <diagram name="Page-1" id="kql24__7_DZ1EOVOCGn5">
    <mxGraphModel>
      <root>
        <mxCell id="0" />
        <mxCell id="1" parent="0" />
      </root>
    </mxGraphModel>
  </diagram>
</mxfile>
